<svg width="66" height="66" viewBox="0 0 66 66" xmlns="http://www.w3.org/2000/svg"><title>fees_icn</title><g fill="none" fill-rule="evenodd"><path d="M65 33c0 17.673-14.327 32-32 32C15.327 65 1 50.673 1 33 1 15.327 15.327 1 33 1c17.673 0 32 14.327 32 32z" stroke="#333" stroke-width="2"/><path d="M60 33c0 14.912-12.088 27-27 27S6 47.912 6 33 18.088 6 33 6s27 12.088 27 27" fill="#0089F7"/><path d="M34 11c0 .552-.448 1-1 1s-1-.448-1-1 .448-1 1-1 1 .448 1 1M34 55c0 .552-.448 1-1 1s-1-.448-1-1 .448-1 1-1 1 .448 1 1M55 34c-.552 0-1-.448-1-1s.448-1 1-1 1 .448 1 1-.448 1-1 1M11 34c-.552 0-1-.448-1-1s.448-1 1-1 1 .448 1 1-.448 1-1 1M49.264 18.15c-.39.392-1.024.392-1.415 0-.39-.39-.39-1.023 0-1.414.39-.39 1.023-.39 1.414 0 .39.39.39 1.024 0 1.415M18.15 49.264c-.39.39-1.023.39-1.414 0-.39-.39-.39-1.024 0-1.415.39-.39 1.024-.39 1.415 0 .392.39.392 1.023 0 1.414M47.85 49.264c-.392-.39-.392-1.024 0-1.415.39-.39 1.023-.39 1.414 0 .39.39.39 1.023 0 1.414-.39.39-1.024.39-1.415 0M16.736 18.15c-.39-.39-.39-1.023 0-1.414.39-.39 1.024-.39 1.415 0 .39.39.39 1.024 0 1.415-.39.392-1.023.392-1.414 0M14.447 21.134c.48.276.643.888.366 1.366-.276.48-.887.642-1.366.366-.478-.276-.642-.887-.366-1.366.277-.478.89-.642 1.367-.366M52.553 43.134c.478.276.642.888.366 1.366-.277.48-.89.642-1.367.366-.48-.276-.643-.887-.366-1.366.276-.478.887-.642 1.366-.366M44.866 14.447c-.276.48-.888.643-1.366.366-.48-.276-.642-.887-.366-1.366.276-.478.887-.642 1.366-.366.478.277.642.89.366 1.367M22.866 52.553c-.276.478-.888.642-1.366.366-.48-.277-.642-.89-.366-1.367.276-.48.887-.643 1.366-.366.478.276.642.887.366 1.366M28.272 11.49c.143.535-.174 1.083-.707 1.226-.534.143-1.082-.174-1.225-.707-.143-.535.174-1.083.707-1.226.534-.143 1.082.174 1.225.707M39.66 53.992c.143.533-.174 1.082-.708 1.225-.533.143-1.08-.174-1.224-.707-.143-.534.174-1.082.707-1.225.534-.143 1.082.173 1.225.707M54.51 28.272c-.535.143-1.083-.174-1.226-.707-.143-.534.174-1.082.707-1.225.535-.143 1.083.174 1.226.707.143.534-.174 1.082-.707 1.225M12.008 39.66c-.533.143-1.082-.174-1.225-.708-.143-.533.174-1.08.707-1.224.534-.143 1.082.174 1.225.707.143.534-.173 1.082-.707 1.225M22.866 13.447c.276.48.112 1.09-.366 1.366-.48.277-1.09.113-1.366-.366-.276-.478-.113-1.09.366-1.366.478-.275 1.09-.11 1.366.367M44.866 51.553c.276.478.112 1.09-.366 1.366-.48.275-1.09.11-1.366-.367-.276-.48-.113-1.09.366-1.366.478-.277 1.09-.113 1.366.366M52.553 22.866c-.48.276-1.09.112-1.366-.366-.277-.48-.113-1.09.366-1.366.478-.276 1.09-.113 1.366.366.275.478.11 1.09-.367 1.366M14.447 44.866c-.478.276-1.09.112-1.366-.366-.275-.48-.11-1.09.367-1.366.48-.276 1.09-.113 1.366.366.277.478.113 1.09-.366 1.366M39.66 12.008c-.143.534-.69.85-1.225.707-.533-.143-.85-.69-.707-1.225.143-.533.69-.85 1.224-.707.534.143.85.692.708 1.225M28.272 54.51c-.143.532-.69.85-1.225.706-.533-.143-.85-.69-.707-1.225.143-.532.69-.85 1.225-.706.533.143.85.69.707 1.225M53.992 39.66c-.534-.143-.85-.69-.707-1.225.143-.533.69-.85 1.225-.707.533.143.85.69.707 1.224-.143.534-.692.85-1.225.708M11.49 28.272c-.532-.143-.85-.69-.706-1.225.143-.533.69-.85 1.225-.707.532.143.85.69.706 1.225-.143.533-.69.85-1.225.707" fill="#FFF"/><path d="M41 25L25 41" stroke="#FFF" stroke-width="2" stroke-linecap="round" stroke-linejoin="round"/><path d="M30 27c0 1.657-1.343 3-3 3s-3-1.343-3-3 1.343-3 3-3 3 1.343 3 3zM42 39c0 1.657-1.343 3-3 3s-3-1.343-3-3 1.343-3 3-3 3 1.343 3 3z" stroke="#FFF" stroke-width="2"/></g></svg>