<?xml version="1.0" encoding="UTF-8" standalone="no"?>
<svg width="24px" height="24px" viewBox="0 0 24 24" version="1.1" xmlns="http://www.w3.org/2000/svg" xmlns:xlink="http://www.w3.org/1999/xlink">
    <defs></defs>
    <g id="Specifications" stroke="none" stroke-width="1" fill="none" fill-rule="evenodd">
        <g id="spec_messages" transform="translate(-693.000000, -1513.000000)">
            <g id="Group-5" transform="translate(690.000000, 1510.000000)">
                <g id="Page-1">
                    <polygon id="Fill-1" fill="#000000" opacity="0" points="0 30 30 30 30 0 0 0"></polygon>
                    <path d="M19.752,15.832 L13.555,19.963 C12.89,20.407 12,19.93 12,19.131 L12,10.869 C12,10.07 12.89,9.593 13.555,10.037 L19.752,14.168 C20.346,14.564 20.346,15.436 19.752,15.832 M15,3 C8.373,3 3,8.373 3,15 C3,21.627 8.373,27 15,27 C21.627,27 27,21.627 27,15 C27,8.373 21.627,3 15,3" id="Fill-3" fill="#111111"></path>
                </g>
            </g>
        </g>
    </g>
</svg>