<svg width="34" height="38" viewBox="0 0 34 38" xmlns="http://www.w3.org/2000/svg"><title>terms_icn</title><g stroke-width="2" stroke="#333" fill="none" fill-rule="evenodd"><path d="M23.998 36.59l8.592-8.592c.203-.203.41-.704.41-.99V2.997C33 1.9 32.102 1 31.002 1H2.998C1.9 1 1 1.898 1 2.998v32.004C1 36.1 1.898 37 2.998 37h20.005c.292 0 .792-.207.995-.41z"/><path d="M23 35.587L31.587 27H25c-1.105 0-2 .895-2 2v6.587z"/><path d="M8 24l12.67-.03M8 29h10M10 15h4" stroke-linecap="round"/><path stroke-linecap="round" stroke-linejoin="round" d="M8 17.934L12 7l4 10.934"/></g></svg>