<svg width="72" height="62" viewBox="0 0 72 62" xmlns="http://www.w3.org/2000/svg"><title>features_icn</title><g fill="none" fill-rule="evenodd"><path d="M45.362 11H7c-3.313 0-6 2.687-6 6v38c0 3.313 2.687 6 6 6h50c3.314 0 6-2.687 6-6V26" stroke="#333" stroke-width="2"/><path d="M45.17 16H9c-1.657 0-3 1.343-3 3v34c0 1.657 1.343 3 3 3h46c1.656 0 3-1.343 3-3V27c-6.498 0-11.867-4.772-12.83-11" fill="#0089F7"/><path d="M50 48h-8c-.552 0-1-.448-1-1v-4c0-.552.448-1 1-1h8c.552 0 1 .448 1 1v4c0 .552-.448 1-1 1z" stroke="#FFF" stroke-width="2" stroke-linecap="round" stroke-linejoin="round"/><path d="M21 42h-8M34 42h-8M34 48H13" stroke="#FFF" stroke-width="2" stroke-linecap="round"/><path d="M71 14c0 7.18-5.82 13-13 13s-13-5.82-13-13S50.82 1 58 1s13 5.82 13 13z" stroke="#333" stroke-width="2"/><path d="M71 14c0 7.18-5.82 13-13 13s-13-5.82-13-13S50.82 1 58 1s13 5.82 13 13z" stroke="#333" stroke-width="2"/><path d="M64 12H52" fill="#F5F6F7"/><path d="M64 12H52" stroke="#333" stroke-width="2" stroke-linecap="round"/><g><path d="M59 16h-7" fill="#F5F6F7"/><path d="M59 16h-7" stroke="#333" stroke-width="2" stroke-linecap="round"/></g></g></svg>